<svg xmlns="http://www.w3.org/2000/svg" xmlns:xlink="http://www.w3.org/1999/xlink" viewBox="0 0 128 128"><defs><style>.cls-1{fill:#82368c;}.cls-2{fill:url(#Gradiente_sem_nome_11);}.cls-3{fill:url(#Gradiente_sem_nome_15);}.cls-4{fill:url(#Gradiente_sem_nome_18);}.cls-5{fill:#f6f6f6;}.cls-6{fill:#dadada;}.cls-7{fill:#fff;}.cls-8{fill:#b2b2b2;}.cls-9{fill:#662483;}</style><linearGradient id="Gradiente_sem_nome_11" x1="20.29" y1="20.29" x2="108.14" y2="108.14" gradientUnits="userSpaceOnUse"><stop offset="0" stop-color="#951b81"/><stop offset="1" stop-color="#951b81" stop-opacity="0"/></linearGradient><linearGradient id="Gradiente_sem_nome_15" x1="81.76" y1="108.4" x2="81.76" y2="48.14" gradientTransform="translate(-33.87 81.76) rotate(-45)" gradientUnits="userSpaceOnUse"><stop offset="0" stop-color="#662483" stop-opacity="0"/><stop offset="1" stop-color="#662483"/></linearGradient><radialGradient id="Gradiente_sem_nome_18" cx="64" cy="64" r="64" gradientUnits="userSpaceOnUse"><stop offset="0.95" stop-color="#f6f6f6" stop-opacity="0.1"/><stop offset="1" stop-color="#fff" stop-opacity="0.25"/></radialGradient></defs><g id="Camada_2" data-name="Camada 2"><g id="Camada_1-2" data-name="Camada 1"><circle class="cls-1" cx="64" cy="64" r="64"/><circle class="cls-2" cx="64" cy="64" r="64"/><path class="cls-3" d="M93.46,35.82,35.82,93.47l34.24,34.24a64,64,0,0,0,57.65-57.65Z"/><path class="cls-4" d="M64,0a64,64,0,1,0,64,64A64,64,0,0,0,64,0Zm0,124.71A60.71,60.71,0,1,1,124.71,64,60.71,60.71,0,0,1,64,124.71Z"/><rect class="cls-5" x="73.39" y="41.85" width="18.21" height="7.29" transform="translate(56.34 -45.01) rotate(45)"/><rect class="cls-6" x="81.14" y="34.11" width="18.21" height="7.29" transform="translate(53.13 -52.75) rotate(45)"/><path class="cls-7" d="M73.48,41.64l-3.13,3.14-3.14,3.13-1.46,1.46-7.39,7.39-2.57,2.57-.7.7-4.34,4.34-7.28,7.28-3.13,3.13L53.21,87.66l3.14-3.14,7.27-7.27L66.85,74,77.51,63.36l2.58-2.57,3.13-3.14,3.14-3.13ZM68.66,67.06h0l0,0-1.26-1.27-1.29-1.29h0L64.8,63.2l-2.57,2.57,1.28,1.29,1.29,1.29,1.27,1.26,0,0h0l-10.3,10.3-7.72-7.72.41-.42,2.16-2.16,3.07,3.07,2.08,2.08h0l2.57-2.56h0L55.8,69.62l-2.57-2.57h0l5.13-5.14,2.58,2.57h0l2.57-2.57-2.57-2.58,2.58-2.58,7.72,7.73Z"/><polygon class="cls-6" points="78.62 51.96 78.61 51.95 77.33 50.67 76.05 49.39 76.03 49.37 74.75 48.09 73.04 49.81 71.33 51.52 69.61 53.23 70.89 54.52 70.91 54.53 72.19 55.81 73.47 57.09 73.48 57.1 74.76 58.38 76.48 56.67 78.19 54.96 79.9 53.24 78.62 51.96"/><polygon class="cls-8" points="89.58 46.15 89.59 46.14 90.23 45.5 90.87 44.86 90.88 44.85 91.52 44.21 88.94 41.63 86.36 39.06 83.78 36.48 83.14 37.12 83.14 37.13 82.5 37.77 81.86 38.41 81.85 38.41 81.21 39.05 83.78 41.63 86.36 44.21 88.94 46.79 89.58 46.15"/><polygon class="cls-8" points="42.92 87.67 42.91 87.65 41.62 86.37 40.34 85.09 40.33 85.08 39.05 83.8 38.19 84.66 37.33 85.52 36.47 86.38 37.75 87.66 37.76 87.67 39.05 88.95 40.33 90.23 40.34 90.25 41.62 91.53 42.48 90.67 43.34 89.81 44.2 88.95 42.92 87.67"/><polygon class="cls-5" points="39.37 89.28 39.37 89.27 39.05 88.95 38.73 88.63 38.72 88.63 38.4 88.31 37.54 89.17 37.11 89.6 36.68 90.03 35.82 90.89 35.82 93.46 37.11 92.17 37.97 91.31 38.4 90.89 38.83 90.45 39.69 89.59 39.37 89.28"/><polygon class="cls-6" points="46.77 88.96 46.78 88.94 48.07 87.66 49.35 86.38 49.36 86.37 50.64 85.09 48.06 82.51 45.48 79.93 42.91 77.36 41.63 78.64 41.61 78.65 40.33 79.93 39.05 81.21 39.04 81.22 37.76 82.5 40.34 85.08 42.91 87.66 45.49 90.24 46.77 88.96"/><polygon class="cls-5" points="63.16 51.96 61.49 53.63 59.81 55.3 59.04 56.08 55.1 60.02 53.73 61.4 53.35 61.77 51.04 64.08 47.16 67.96 45.49 69.63 45.49 69.63 45.25 69.87 45 70.12 44.89 70.23 44.32 70.8 44.12 71 44.06 71.06 43.73 71.4 43.16 71.96 42.92 72.2 55.79 85.08 56.03 84.84 56.6 84.27 56.85 84.02 57.68 83.19 57.88 82.99 58.12 82.75 58.37 82.5 58.37 82.5 60.04 80.83 63.91 76.96 65.63 75.24 71.32 69.56 72.69 68.18 74.36 66.51 76.03 64.84 63.16 51.96"/><polygon class="cls-9" points="66.09 64.48 66.09 64.48 67.38 65.77 68.64 67.04 68.66 67.06 68.66 67.06 71.24 64.48 63.52 56.76 60.94 59.33 63.51 61.91 60.94 64.48 60.94 64.48 58.36 61.91 53.23 67.05 53.22 67.06 53.22 67.06 53.23 67.05 55.8 69.62 58.38 72.2 58.37 72.2 55.8 74.77 55.79 74.78 53.71 72.7 50.64 69.63 48.48 71.79 48.06 72.2 55.79 79.93 66.09 69.63 66.09 69.63 66.07 69.61 64.8 68.35 63.51 67.06 62.23 65.77 64.8 63.2 66.09 64.48"/></g></g></svg>